<svg xmlns="http://www.w3.org/2000/svg" viewBox="0 0 56.59 11.59"><defs><style>.cls-1{fill:#fbb03b;}</style></defs><g id="Calque_2" data-name="Calque 2"><g id="Calque_1-2" data-name="Calque 1"><path d="M1.2,1.22V.86h8L6.17,9.28,4.61,5,3.06,9.28,0,.86H.38L3.06,8.22,4.61,4,6.17,8.22l2.54-7Z"/><path d="M14.89,9.26h-.36V5.78h-3.6V9.26h-.36v-7h.36V5.42h3.6V2.3h.36Z"/><path d="M21.82,8.53a2.54,2.54,0,0,1-2.15.85,2.52,2.52,0,0,1-2.15-.85,4.6,4.6,0,0,1-.65-2.75A4.56,4.56,0,0,1,17.52,3a2.53,2.53,0,0,1,2.15-.86A2.54,2.54,0,0,1,21.82,3a4.57,4.57,0,0,1,.64,2.74A4.6,4.6,0,0,1,21.82,8.53ZM20.68,2.67a3.65,3.65,0,0,0-1-.13,3.59,3.59,0,0,0-1,.13,1.79,1.79,0,0,0-.75.47,2.11,2.11,0,0,0-.51,1,6.91,6.91,0,0,0-.17,1.65,6.8,6.8,0,0,0,.17,1.65,2.1,2.1,0,0,0,.51,1,1.89,1.89,0,0,0,.75.47,3.63,3.63,0,0,0,1,.12,3.68,3.68,0,0,0,1-.12,1.89,1.89,0,0,0,.75-.47,2.29,2.29,0,0,0,.51-1,6.86,6.86,0,0,0,.16-1.65,7,7,0,0,0-.16-1.65,2.31,2.31,0,0,0-.51-1A1.79,1.79,0,0,0,20.68,2.67Z"/><path d="M28.45,8.9v.36h-4v-7h.36V8.9Z"/><path d="M34.49,8.56a2.6,2.6,0,0,1-2.16.82,2.52,2.52,0,0,1-2.15-.85,4.6,4.6,0,0,1-.65-2.75A4.56,4.56,0,0,1,30.18,3a2.53,2.53,0,0,1,2.15-.86,2.44,2.44,0,0,1,2.36,1.14L31.75,5.78h-.56l3-2.53a2.22,2.22,0,0,0-1.89-.71,3.59,3.59,0,0,0-1,.13,1.79,1.79,0,0,0-.75.47,2.11,2.11,0,0,0-.51,1,6.91,6.91,0,0,0-.17,1.65,6.8,6.8,0,0,0,.17,1.65,2.1,2.1,0,0,0,.51,1,1.89,1.89,0,0,0,.75.47,3.63,3.63,0,0,0,1,.12,2.22,2.22,0,0,0,1.89-.7Z"/><path class="cls-1" d="M40.1,8.92a1.75,1.75,0,0,1-.64.32,3,3,0,0,1-.8.11A2.31,2.31,0,0,1,37,8.8a2.15,2.15,0,0,1-.57-1.61V4.1H35.4V2.9h1.06V1.44H38V2.9h1.71V4.1H38V7.15a1.05,1.05,0,0,0,.22.72.88.88,0,0,0,.66.24,1.34,1.34,0,0,0,.84-.26Z"/><path class="cls-1" d="M45.05,2.78V4.21l-.35,0a1.81,1.81,0,0,0-1.37.51,2,2,0,0,0-.49,1.47v3.1h-1.5V2.86h1.43v.93A2.5,2.5,0,0,1,45.05,2.78Z"/><path class="cls-1" d="M46.39,1.54A.85.85,0,0,1,46.11.9a.85.85,0,0,1,.28-.64,1,1,0,0,1,1.37,0A.8.8,0,0,1,48,.86a.94.94,0,0,1-.27.67,1,1,0,0,1-1.38,0Zm-.07,1.32h1.5v6.4h-1.5Z"/><path class="cls-1" d="M55,3.19a3,3,0,0,1,1.16,1.15,3.45,3.45,0,0,1,.42,1.72,3.45,3.45,0,0,1-.42,1.72A2.94,2.94,0,0,1,55,8.94a3.41,3.41,0,0,1-1.67.41,2.56,2.56,0,0,1-2.05-.87v3.11h-1.5V2.86h1.42V3.7A2.31,2.31,0,0,1,52.13,3a3.18,3.18,0,0,1,1.21-.23A3.41,3.41,0,0,1,55,3.19Zm-.48,4.32a2,2,0,0,0,.54-1.45,2,2,0,0,0-.54-1.45,1.79,1.79,0,0,0-1.36-.55,2,2,0,0,0-1,.24,1.86,1.86,0,0,0-.69.7,2.37,2.37,0,0,0,0,2.12,1.86,1.86,0,0,0,.69.7,2,2,0,0,0,1,.24A1.79,1.79,0,0,0,54.53,7.51Z"/></g></g></svg>