<svg xmlns="http://www.w3.org/2000/svg" viewBox="0 0 61.99 16.99"><defs><style>.cls-1{fill:#191919;}.cls-2{fill:#fff;}.cls-3{fill:#fbb03b;}</style></defs><g id="Calque_2" data-name="Calque 2"><g id="Calque_1-2" data-name="Calque 1"><rect class="cls-1" width="61.99" height="16.99" rx="2.73"/><path class="cls-2" d="M3.9,3.92V3.56h8L8.87,12,7.31,7.7,5.76,12,2.7,3.56h.38l2.68,7.36L7.31,6.65l1.56,4.27,2.54-7Z"/><path class="cls-2" d="M17.59,12h-.36V8.48h-3.6V12h-.36V5h.36V8.12h3.6V5h.36Z"/><path class="cls-2" d="M24.51,11.23a2.5,2.5,0,0,1-2.14.85,2.52,2.52,0,0,1-2.15-.85,4.6,4.6,0,0,1-.65-2.75,4.62,4.62,0,0,1,.65-2.75,2.55,2.55,0,0,1,2.15-.85,2.53,2.53,0,0,1,2.14.85,4.55,4.55,0,0,1,.65,2.75A4.53,4.53,0,0,1,24.51,11.23ZM23.37,5.37a3.19,3.19,0,0,0-1-.13,3.26,3.26,0,0,0-1,.13,1.79,1.79,0,0,0-.75.47,2.06,2.06,0,0,0-.51,1,6.91,6.91,0,0,0-.17,1.65,6.8,6.8,0,0,0,.17,1.65,2.1,2.1,0,0,0,.51,1,1.89,1.89,0,0,0,.75.47,3.63,3.63,0,0,0,1,.12,3.55,3.55,0,0,0,1-.12,1.76,1.76,0,0,0,.75-.47,2.1,2.1,0,0,0,.51-1,6.33,6.33,0,0,0,.17-1.65,6.43,6.43,0,0,0-.17-1.65,2.06,2.06,0,0,0-.51-1A1.67,1.67,0,0,0,23.37,5.37Z"/><path class="cls-2" d="M31.15,11.6V12h-4V5h.36v6.6Z"/><path class="cls-2" d="M37.19,11.25a2.58,2.58,0,0,1-2.16.83,2.52,2.52,0,0,1-2.15-.85,4.6,4.6,0,0,1-.65-2.75,4.62,4.62,0,0,1,.65-2.75A2.55,2.55,0,0,1,35,4.88,2.45,2.45,0,0,1,37.39,6L34.45,8.48h-.56l3-2.53A2.22,2.22,0,0,0,35,5.24a3.26,3.26,0,0,0-1,.13,1.79,1.79,0,0,0-.75.47,2.06,2.06,0,0,0-.51,1,6.91,6.91,0,0,0-.17,1.65,6.8,6.8,0,0,0,.17,1.65,2.1,2.1,0,0,0,.51,1,1.89,1.89,0,0,0,.75.47,3.63,3.63,0,0,0,1,.12A2.19,2.19,0,0,0,36.92,11Z"/><path class="cls-3" d="M42.8,11.61a1.62,1.62,0,0,1-.64.33,3,3,0,0,1-.8.11,2.25,2.25,0,0,1-1.63-.56,2.12,2.12,0,0,1-.58-1.6V6.8h-1V5.6h1V4.14h1.5V5.6h1.72V6.8H40.65V9.85a1,1,0,0,0,.23.71.83.83,0,0,0,.66.25,1.34,1.34,0,0,0,.84-.26Z"/><path class="cls-3" d="M47.75,5.48V6.91a2.5,2.5,0,0,0-.35,0A1.81,1.81,0,0,0,46,7.38a2,2,0,0,0-.49,1.47V12H44V5.55h1.43v.94A2.5,2.5,0,0,1,47.75,5.48Z"/><path class="cls-3" d="M49.09,4.24a.86.86,0,0,1-.28-.64A.85.85,0,0,1,49.09,3a.92.92,0,0,1,.68-.26,1,1,0,0,1,.69.24.81.81,0,0,1,.27.62.9.9,0,0,1-.27.67.93.93,0,0,1-.69.27A1,1,0,0,1,49.09,4.24ZM49,5.55h1.5V12H49Z"/><path class="cls-3" d="M57.71,5.89A3,3,0,0,1,58.87,7a3.45,3.45,0,0,1,.42,1.72,3.45,3.45,0,0,1-.42,1.72,2.94,2.94,0,0,1-1.16,1.16,3.41,3.41,0,0,1-1.67.41,2.56,2.56,0,0,1-2-.87v3.11h-1.5V5.55h1.42v.84a2.38,2.38,0,0,1,.92-.68A3.18,3.18,0,0,1,56,5.48,3.41,3.41,0,0,1,57.71,5.89Zm-.48,4.32a2,2,0,0,0,.54-1.45,2,2,0,0,0-.54-1.45,1.8,1.8,0,0,0-1.36-.56,2,2,0,0,0-1,.25,1.79,1.79,0,0,0-.69.7A2.27,2.27,0,0,0,54,8.76a2.2,2.2,0,0,0,.25,1.05,1.81,1.81,0,0,0,.69.71,2,2,0,0,0,1,.24A1.79,1.79,0,0,0,57.23,10.21Z"/></g></g></svg>